<svg width="107" height="90" viewBox="0 0 107 90" fill="none" xmlns="http://www.w3.org/2000/svg">
<path d="M40.8874 67.7387L57.1979 58.5351L62.8421 67.7387H40.8874Z" fill="white"/>
<path d="M57.0514 58.7192C54.3722 49.2946 59.5321 20.3093 62.447 6.99476L42.3529 21.9046L35.4688 43.2571C30.4081 78.1572 47.7486 68.1069 57.0514 58.7192Z" fill="url(#paint0_linear_2363_25882)"/>
<path d="M38.0966 6.99476H62.656L41.2595 43.8093H17.4443L38.0966 6.99476Z" fill="url(#paint1_linear_2363_25882)"/>
<path d="M28.9798 0H51.6787L37.5384 24.2976H14.8395L28.9798 0Z" fill="url(#paint2_linear_2363_25882)"/>
<path d="M76.0521 27.979C66.9353 48.5952 62.0358 53.0743 56.8883 58.7192C61.9118 85.2256 85.727 46.2022 90.5645 27.979H76.0521Z" fill="url(#paint3_linear_2363_25882)"/>
<path d="M5.00608 85.4615H1.81405V83.2785H5.00608C5.47704 83.2785 5.85496 83.2008 6.13986 83.0455C6.43058 82.8902 6.6428 82.6774 6.77652 82.407C6.91607 82.1309 6.98584 81.8203 6.98584 81.4751C6.98584 81.1185 6.91607 80.7877 6.77652 80.4829C6.6428 80.1722 6.43058 79.922 6.13986 79.7322C5.85496 79.5424 5.47704 79.4475 5.00608 79.4475H2.84317V89.8274H0V77.2645H5.00608C6.01776 77.2645 6.88409 77.4457 7.60506 77.8081C8.33184 78.1705 8.8871 78.668 9.27084 79.3008C9.6604 79.9278 9.85518 80.6468 9.85518 81.4579C9.85518 82.2689 9.6604 82.9736 9.27084 83.5718C8.8871 84.1701 8.33184 84.636 7.60506 84.9696C6.88409 85.2975 6.01776 85.4615 5.00608 85.4615Z" fill="white"/>
<path d="M13.904 77.2645H18.7793C19.7502 77.2645 20.5904 77.4083 21.2997 77.6959C22.0149 77.9835 22.5643 78.4092 22.9481 78.9729C23.3318 79.5366 23.5237 80.2326 23.5237 81.061C23.5237 81.7512 23.4103 82.338 23.1836 82.8212C22.9568 83.3044 22.637 83.7041 22.2242 84.0205C21.8172 84.3369 21.3404 84.5929 20.7939 84.7884L19.8694 85.2889H15.718L15.7006 83.1059H18.788C19.2124 83.1059 19.5642 83.0311 19.8433 82.8816C20.1224 82.732 20.3317 82.522 20.4712 82.2517C20.6166 81.9756 20.6892 81.6535 20.6892 81.2853C20.6892 80.9057 20.6166 80.5778 20.4712 80.3017C20.3258 80.0256 20.1107 79.8156 19.8258 79.6718C19.5467 79.5222 19.1979 79.4475 18.7793 79.4475H16.7472V89.8274H13.904V77.2645ZM20.9334 89.8274L18.0815 84.2449L21.0817 84.2362L23.9772 89.698V89.8274H20.9334Z" fill="white"/>
<path d="M38.3609 83.2698V83.8307C38.3609 84.7856 38.2272 85.6427 37.9597 86.402C37.6981 87.1613 37.323 87.8084 36.8346 88.3433C36.3521 88.8783 35.7764 89.2896 35.1078 89.5772C34.445 89.8591 33.7095 90 32.9013 90C32.0931 90 31.3547 89.8591 30.6861 89.5772C30.0174 89.2896 29.436 88.8783 28.9418 88.3433C28.4534 87.8084 28.0754 87.1613 27.808 86.402C27.5405 85.6427 27.4068 84.7856 27.4068 83.8307V83.2698C27.4068 82.315 27.5405 81.4579 27.808 80.6986C28.0754 79.9335 28.4505 79.2835 28.9331 78.7486C29.4214 78.2136 30 77.8052 30.6686 77.5233C31.3372 77.2357 32.0757 77.0919 32.8838 77.0919C33.692 77.0919 34.4304 77.2357 35.0991 77.5233C35.7677 77.8052 36.3433 78.2136 36.8259 78.7486C37.3143 79.2835 37.6922 79.9335 37.9597 80.6986C38.2272 81.4579 38.3609 82.315 38.3609 83.2698ZM35.4915 83.8307V83.2526C35.4915 82.6141 35.4334 82.0504 35.3171 81.5614C35.2008 81.0667 35.0322 80.6526 34.8113 80.3189C34.5903 79.9853 34.3171 79.7351 33.9915 79.5683C33.6659 79.3957 33.2967 79.3094 32.8838 79.3094C32.4536 79.3094 32.0786 79.3957 31.7588 79.5683C31.439 79.7351 31.1686 79.9853 30.9477 80.3189C30.7326 80.6526 30.5669 81.0667 30.4506 81.5614C30.3401 82.0504 30.2849 82.6141 30.2849 83.2526V83.8307C30.2849 84.4634 30.3401 85.0272 30.4506 85.5219C30.5669 86.0108 30.7355 86.425 30.9564 86.7643C31.1774 87.1037 31.4477 87.3597 31.7675 87.5323C32.0931 87.7048 32.471 87.7911 32.9013 87.7911C33.3141 87.7911 33.6804 87.7048 34.0002 87.5323C34.3258 87.3597 34.5991 87.1037 34.82 86.7643C35.0409 86.425 35.2066 86.0108 35.3171 85.5219C35.4334 85.0272 35.4915 84.4634 35.4915 83.8307Z" fill="white"/>
<path d="M49.0118 86.5141C49.0118 86.3013 48.9798 86.1115 48.9159 85.9446C48.8519 85.7721 48.7356 85.6139 48.567 85.4701C48.3984 85.3263 48.16 85.1825 47.8519 85.0387C47.5437 84.8891 47.1396 84.7367 46.6396 84.5814C46.0698 84.3973 45.5262 84.1902 45.0087 83.9601C44.497 83.7243 44.0406 83.451 43.6394 83.1404C43.2382 82.8298 42.9214 82.4674 42.6888 82.0532C42.462 81.6391 42.3487 81.1559 42.3487 80.6037C42.3487 80.0687 42.4678 79.5855 42.7062 79.1541C42.9446 78.7227 43.2789 78.3545 43.7092 78.0497C44.1394 77.739 44.6453 77.5032 45.2267 77.3421C45.8081 77.1753 46.4477 77.0919 47.1454 77.0919C48.0757 77.0919 48.8926 77.2558 49.5961 77.5837C50.3055 77.9058 50.8578 78.3603 51.2532 78.947C51.6486 79.528 51.8463 80.2039 51.8463 80.9747H49.0205C49.0205 80.6353 48.9478 80.3362 48.8025 80.0773C48.6629 79.8127 48.4478 79.6056 48.1571 79.4561C47.8722 79.3065 47.5146 79.2317 47.0844 79.2317C46.6657 79.2317 46.314 79.295 46.0291 79.4216C45.75 79.5424 45.5378 79.7092 45.3924 79.922C45.2529 80.1349 45.1831 80.3678 45.1831 80.6209C45.1831 80.8223 45.2354 81.0063 45.3401 81.1731C45.4506 81.3342 45.6075 81.4866 45.811 81.6304C46.0204 81.7685 46.2762 81.9008 46.5785 82.0274C46.8809 82.1539 47.2268 82.2747 47.6164 82.3897C48.2966 82.6026 48.8984 82.8384 49.4217 83.0973C49.9508 83.3561 50.3956 83.6495 50.7561 83.9774C51.1166 84.3053 51.3869 84.6763 51.5672 85.0904C51.7532 85.5046 51.8463 85.9734 51.8463 86.4969C51.8463 87.0548 51.7358 87.5495 51.5148 87.9809C51.2997 88.4124 50.9857 88.7805 50.5729 89.0854C50.1659 89.3845 49.6775 89.6117 49.1077 89.767C48.5379 89.9223 47.9013 90 47.1978 90C46.5582 90 45.9273 89.9195 45.3052 89.7584C44.6831 89.5916 44.1191 89.3385 43.6133 88.9991C43.1132 88.6597 42.712 88.2283 42.4097 87.7048C42.1132 87.1756 41.9649 86.5486 41.9649 85.8238H44.8081C44.8081 86.2035 44.8633 86.5256 44.9738 86.7902C45.0843 87.0491 45.2412 87.259 45.4447 87.4201C45.6541 87.5812 45.907 87.6962 46.2035 87.7652C46.5 87.8343 46.8315 87.8688 47.1978 87.8688C47.6222 87.8688 47.9652 87.8113 48.2269 87.6962C48.4943 87.5754 48.692 87.4115 48.8199 87.2044C48.9478 86.9973 49.0118 86.7672 49.0118 86.5141Z" fill="white"/>
<path d="M60.8488 85.4615H57.6568V83.2785H60.8488C61.3198 83.2785 61.6977 83.2008 61.9826 83.0455C62.2733 82.8902 62.4855 82.6774 62.6193 82.407C62.7588 82.1309 62.8286 81.8203 62.8286 81.4751C62.8286 81.1185 62.7588 80.7877 62.6193 80.4829C62.4855 80.1722 62.2733 79.922 61.9826 79.7322C61.6977 79.5424 61.3198 79.4475 60.8488 79.4475H58.6859V89.8274H55.8427V77.2645H60.8488C61.8605 77.2645 62.7268 77.4457 63.4478 77.8081C64.1746 78.1705 64.7298 78.668 65.1136 79.3008C65.5031 79.9278 65.6979 80.6468 65.6979 81.4579C65.6979 82.2689 65.5031 82.9736 65.1136 83.5718C64.7298 84.1701 64.1746 84.636 63.4478 84.9696C62.7268 85.2975 61.8605 85.4615 60.8488 85.4615Z" fill="white"/>
<path d="M78.3809 87.6531V89.8274H71.6218V87.6531H78.3809ZM72.5899 77.2645V89.8274H69.7467V77.2645H72.5899ZM77.5088 82.3207V84.426H71.6218V82.3207H77.5088ZM78.3896 77.2645V79.4475H71.6218V77.2645H78.3896Z" fill="white"/>
<path d="M82.0983 77.2645H86.9736C87.9446 77.2645 88.7847 77.4083 89.4941 77.6959C90.2092 77.9835 90.7587 78.4092 91.1424 78.9729C91.5262 79.5366 91.718 80.2326 91.718 81.061C91.718 81.7512 91.6047 82.338 91.3779 82.8212C91.1511 83.3044 90.8314 83.7041 90.4185 84.0205C90.0116 84.3369 89.5348 84.5929 88.9882 84.7884L88.0638 85.2889H83.9124L83.8949 83.1059H86.9823C87.4068 83.1059 87.7585 83.0311 88.0376 82.8816C88.3167 82.732 88.526 82.522 88.6655 82.2517C88.8109 81.9756 88.8836 81.6535 88.8836 81.2853C88.8836 80.9057 88.8109 80.5778 88.6655 80.3017C88.5202 80.0256 88.3051 79.8156 88.0202 79.6718C87.7411 79.5222 87.3922 79.4475 86.9736 79.4475H84.9415V89.8274H82.0983V77.2645ZM89.1278 89.8274L86.2759 84.2449L89.276 84.2362L92.1715 89.698V89.8274H89.1278Z" fill="white"/>
<path d="M101.244 79.6545L97.9646 89.8274H94.9296L99.6304 77.2645H101.549L101.244 79.6545ZM103.965 89.8274L100.677 79.6545L100.337 77.2645H102.282L107 89.8274H103.965ZM103.825 85.1508V87.3252H97.2059V85.1508H103.825Z" fill="white"/>
<defs>
<linearGradient id="paint0_linear_2363_25882" x1="53.5" y1="0" x2="53.5" y2="90" gradientUnits="userSpaceOnUse">
<stop stop-color="white"/>
<stop offset="1" stop-color="#B7B7B7"/>
</linearGradient>
<linearGradient id="paint1_linear_2363_25882" x1="53.5" y1="0" x2="53.5" y2="90" gradientUnits="userSpaceOnUse">
<stop stop-color="white"/>
<stop offset="0.331" stop-color="#CFCFCF"/>
</linearGradient>
<linearGradient id="paint2_linear_2363_25882" x1="41.6111" y1="3.58983e-07" x2="72.8837" y2="86.1001" gradientUnits="userSpaceOnUse">
<stop stop-color="white"/>
<stop offset="1" stop-color="#7A7A7A"/>
</linearGradient>
<linearGradient id="paint3_linear_2363_25882" x1="53.5" y1="0" x2="53.5" y2="90" gradientUnits="userSpaceOnUse">
<stop stop-color="white"/>
<stop offset="1" stop-color="#E6E6E6"/>
</linearGradient>
</defs>
</svg>
